<svg xmlns="http://www.w3.org/2000/svg" viewBox="0 0 668.84 148.57"><title>gencomm</title><path d="M194.7,108.39A26.44,26.44,0,0,1,183.92,98.2a29.45,29.45,0,0,1-3.83-15.14V56.67a29.73,29.73,0,0,1,3.83-15.19A25.87,25.87,0,0,1,194.7,31.29a37.33,37.33,0,0,1,31.86-.06,26.69,26.69,0,0,1,10.72,9.6,24.77,24.77,0,0,1,3.83,13.49v.82a1.42,1.42,0,0,1-1.41,1.42H225.91a1.42,1.42,0,0,1-1.41-1.42v-.35a12.32,12.32,0,0,0-3.77-9.13,15.25,15.25,0,0,0-20.2.23A14.21,14.21,0,0,0,196.7,56.2V83.53a13.62,13.62,0,0,0,4.12,10.31,14.56,14.56,0,0,0,10.49,3.94q6.12,0,9.77-3.23t3.66-9v-5.3a.52.52,0,0,0-.59-.59H211a1.35,1.35,0,0,1-1-.41,1.37,1.37,0,0,1-.41-1V67.39A1.4,1.4,0,0,1,211,66H239.7a1.4,1.4,0,0,1,1.41,1.41V82.94a30.85,30.85,0,0,1-3.77,15.55,24.87,24.87,0,0,1-10.66,10.07,35,35,0,0,1-16,3.48A34,34,0,0,1,194.7,108.39Z"/><path d="M302,84.59A1.37,1.37,0,0,1,300.48,86h-36.4c-.47,0-.63.2-.47.59a21.17,21.17,0,0,0,1.3,4.72Q268,97.9,277.39,97.9a14.19,14.19,0,0,0,11.9-6.12,1.07,1.07,0,0,1,1.89-.24l8.48,8.37a1.62,1.62,0,0,1,.59,1.06,2.52,2.52,0,0,1-.47.94,25.76,25.76,0,0,1-10,7.48A33.39,33.39,0,0,1,276.33,112q-10.12,0-17.14-4.59A25.56,25.56,0,0,1,249.12,94.6q-2.48-5.88-2.47-15.43a34,34,0,0,1,1.76-11.42,25.85,25.85,0,0,1,9.49-13.31A26.49,26.49,0,0,1,274,49.49q11.77,0,18.9,6.83t8.66,18.26A50.51,50.51,0,0,1,302,84.59ZM264.32,70.81a27.55,27.55,0,0,0-.83,3.77.52.52,0,0,0,.59.59h20.38c.47,0,.63-.2.47-.59-.39-2.28-.59-3.38-.59-3.3a10.13,10.13,0,0,0-3.71-5.48,10.76,10.76,0,0,0-6.53-1.94Q266.67,63.86,264.32,70.81Z"/><path d="M354.32,55.38q5.76,5.77,5.77,15.66v38.64a1.42,1.42,0,0,1-1.42,1.42H344.89a1.34,1.34,0,0,1-1-.42,1.32,1.32,0,0,1-.41-1V74.46a11.06,11.06,0,0,0-2.65-7.66,9.83,9.83,0,0,0-14,0,11,11,0,0,0-2.65,7.66v35.22a1.42,1.42,0,0,1-1.42,1.42H309a1.42,1.42,0,0,1-1.41-1.42V52A1.4,1.4,0,0,1,309,50.55h13.78A1.4,1.4,0,0,1,324.16,52v4.12a.5.5,0,0,0,.23.48.24.24,0,0,0,.36-.12q4.83-6.84,14.37-6.83T354.32,55.38Z"/><path d="M382.82,108.92a23.61,23.61,0,0,1-9.72-9.19A26.78,26.78,0,0,1,369.63,86V53.61a26.25,26.25,0,0,1,3.47-13.55,23.79,23.79,0,0,1,9.72-9.13,31.13,31.13,0,0,1,14.49-3.24,31.5,31.5,0,0,1,14.49,3.18,23.59,23.59,0,0,1,9.72,9A25.35,25.35,0,0,1,425,53.14a1.24,1.24,0,0,1-.35.94,1.11,1.11,0,0,1-.82.36l-6,.35c-.79,0-1.18-.35-1.18-1.06v-.36q0-8.35-5.3-13.37t-14-5q-8.71,0-14,5.06T378,53.37v33q0,8.25,5.3,13.31t14,5.07q8.71,0,14-5t5.3-13.37v-.24c0-.7.39-1.06,1.18-1.06l6,.36c.78,0,1.17.35,1.17,1.06A25.87,25.87,0,0,1,421.52,100a23.47,23.47,0,0,1-9.72,9,31.5,31.5,0,0,1-14.49,3.18A31,31,0,0,1,382.82,108.92Z"/><path d="M445.37,107.68a22.31,22.31,0,0,1-8.48-12,51.3,51.3,0,0,1-1.65-14.48q0-9.08,1.65-14.38a21.68,21.68,0,0,1,8.37-11.89,24.89,24.89,0,0,1,14.84-4.36,24.07,24.07,0,0,1,14.43,4.36,21.81,21.81,0,0,1,8.3,11.78q1.65,5.06,1.65,14.49t-1.65,14.48a21.83,21.83,0,0,1-8.3,12A24.25,24.25,0,0,1,460,112,24.54,24.54,0,0,1,445.37,107.68Zm24.27-6.07a15.3,15.3,0,0,0,5.42-8.42,51.48,51.48,0,0,0,1.06-11.9,56.73,56.73,0,0,0-.94-11.89A15.2,15.2,0,0,0,469.7,61a15.68,15.68,0,0,0-9.84-3.12A15,15,0,0,0,444.67,69.4a56.73,56.73,0,0,0-.94,11.89,56.77,56.77,0,0,0,.94,11.9,14.6,14.6,0,0,0,5.36,8.42,15.79,15.79,0,0,0,10,3.13A15.19,15.19,0,0,0,469.64,101.61Z"/><path d="M571,56q5.12,5.3,5.12,14.49v39.46A1,1,0,0,1,575,111.1h-5.89a1,1,0,0,1-1.17-1.18V72.11q0-6.48-3.72-10.31A12.92,12.92,0,0,0,554.46,58a13.77,13.77,0,0,0-10.08,3.77q-3.82,3.76-3.82,10.13v38.05a1,1,0,0,1-1.18,1.18h-6a1,1,0,0,1-1.18-1.18V72.11q0-6.48-3.65-10.31A12.88,12.88,0,0,0,518.76,58q-6.24,0-9.95,3.77T505.1,71.87v38.05a1,1,0,0,1-1.18,1.18h-6a1,1,0,0,1-1.18-1.18V52.67a1,1,0,0,1,1.18-1.18h6a1,1,0,0,1,1.18,1.18v4.71c0,.16.06.26.18.29s.25,0,.41-.17a15.88,15.88,0,0,1,6.65-5.13,23.22,23.22,0,0,1,9-1.71,20.93,20.93,0,0,1,10.49,2.48,15.93,15.93,0,0,1,6.6,7.18c.15.4.35.4.58,0a17,17,0,0,1,7.31-7.24,23.15,23.15,0,0,1,10.72-2.42Q565.89,50.66,571,56Z"/><path d="M663.71,56q5.13,5.3,5.13,14.49v39.46a1,1,0,0,1-1.18,1.18h-5.89a1,1,0,0,1-1.18-1.18V72.11q0-6.48-3.71-10.31A12.92,12.92,0,0,0,647.16,58a13.74,13.74,0,0,0-10.07,3.77q-3.83,3.76-3.83,10.13v38.05a1,1,0,0,1-1.17,1.18h-6a1,1,0,0,1-1.18-1.18V72.11q0-6.48-3.65-10.31A12.91,12.91,0,0,0,611.47,58q-6.24,0-10,3.77t-3.71,10.13v38.05a1,1,0,0,1-1.18,1.18h-6a1,1,0,0,1-1.18-1.18V52.67a1,1,0,0,1,1.18-1.18h6a1,1,0,0,1,1.18,1.18v4.71c0,.16.06.26.17.29s.26,0,.42-.17a15.88,15.88,0,0,1,6.65-5.13,23.18,23.18,0,0,1,9-1.71,20.93,20.93,0,0,1,10.49,2.48,15.85,15.85,0,0,1,6.59,7.18c.16.4.36.4.59,0A16.92,16.92,0,0,1,639,53.08a23.15,23.15,0,0,1,10.72-2.42Q658.6,50.66,663.71,56Z"/><rect width="148.57" height="148.57" rx="57.18" style="fill:#113182"/><path d="M45.68,44.89a41.57,41.57,0,0,0,58.79,58.79A45.79,45.79,0,0,0,115,87.21l-3.59-3.58-5.17-5.17-9.9-9.91-7.53,7.54,13.42,13.42a39.7,39.7,0,0,1-5.34,6.63,30.91,30.91,0,1,1,0-43.71l.25.26,7.53-7.54-.24-.26A41.63,41.63,0,0,0,45.68,44.89Z" style="fill:#fff"/><path d="M79.7,81.68a8.7,8.7,0,1,1-4.55-16.06,8.89,8.89,0,0,1,6.37,2.69l7.56-7.44a19.68,19.68,0,0,0-14-5.83,19.25,19.25,0,1,0,0,38.5A19.63,19.63,0,0,0,87.3,89.28Z" style="fill:#fff"/></svg>