<svg xmlns="http://www.w3.org/2000/svg" viewBox="0 0 488.75 261.66"><title>gencomm-v2</title><path d="M14.61,257.89A26.44,26.44,0,0,1,3.83,247.7,29.45,29.45,0,0,1,0,232.56V206.17A29.73,29.73,0,0,1,3.83,191a25.87,25.87,0,0,1,10.78-10.19,34.32,34.32,0,0,1,16-3.6,34.16,34.16,0,0,1,15.84,3.54,26.69,26.69,0,0,1,10.72,9.6A24.77,24.77,0,0,1,61,203.82v.82a1.42,1.42,0,0,1-1.41,1.42H45.82a1.42,1.42,0,0,1-1.41-1.42v-.35a12.32,12.32,0,0,0-3.77-9.13,13.66,13.66,0,0,0-10-3.71,13.54,13.54,0,0,0-10.19,3.94,14.21,14.21,0,0,0-3.83,10.31V233a13.62,13.62,0,0,0,4.12,10.31,14.56,14.56,0,0,0,10.49,3.94q6.12,0,9.78-3.23t3.65-9v-5.3a.52.52,0,0,0-.59-.59H30.86a1.35,1.35,0,0,1-1-.41,1.37,1.37,0,0,1-.41-1V216.89a1.4,1.4,0,0,1,1.41-1.41H59.61A1.4,1.4,0,0,1,61,216.89v15.55A30.85,30.85,0,0,1,57.25,248a24.87,24.87,0,0,1-10.66,10.07,35,35,0,0,1-16,3.48A34,34,0,0,1,14.61,257.89Z"/><path d="M121.92,234.09a1.37,1.37,0,0,1-1.53,1.41H84c-.47,0-.63.2-.47.59a21.17,21.17,0,0,0,1.3,4.72q3.06,6.58,12.48,6.59a14.19,14.19,0,0,0,11.9-6.12,1.07,1.07,0,0,1,1.89-.24l8.48,8.37a1.62,1.62,0,0,1,.59,1.06,2.52,2.52,0,0,1-.47.94,25.76,25.76,0,0,1-10,7.48,33.39,33.39,0,0,1-13.43,2.65q-10.12,0-17.14-4.59A25.56,25.56,0,0,1,69,244.1q-2.48-5.88-2.47-15.43a33.78,33.78,0,0,1,1.77-11.42,25.78,25.78,0,0,1,9.48-13.31A26.49,26.49,0,0,1,93.89,199q11.77,0,18.9,6.83t8.66,18.26A50.51,50.51,0,0,1,121.92,234.09ZM84.23,220.31a27.55,27.55,0,0,0-.83,3.77.52.52,0,0,0,.59.59h20.38c.47,0,.63-.2.47-.59-.39-2.28-.59-3.38-.59-3.3a10.13,10.13,0,0,0-3.71-5.48A10.76,10.76,0,0,0,94,213.36Q86.59,213.36,84.23,220.31Z"/><path d="M174.23,204.88q5.76,5.77,5.77,15.66v38.64a1.42,1.42,0,0,1-1.42,1.42H164.8a1.36,1.36,0,0,1-1-.42,1.32,1.32,0,0,1-.41-1V224a11.06,11.06,0,0,0-2.65-7.66,9.83,9.83,0,0,0-14,0,11,11,0,0,0-2.65,7.66v35.22a1.42,1.42,0,0,1-1.41,1.42H128.87a1.42,1.42,0,0,1-1.41-1.42V201.46a1.4,1.4,0,0,1,1.41-1.41h13.79a1.4,1.4,0,0,1,1.41,1.41v4.12a.5.5,0,0,0,.23.48.24.24,0,0,0,.36-.12q4.83-6.84,14.37-6.83T174.23,204.88Z"/><path d="M202.73,258.42a23.61,23.61,0,0,1-9.72-9.19,26.78,26.78,0,0,1-3.47-13.73V203.11A26.25,26.25,0,0,1,193,189.56a23.79,23.79,0,0,1,9.72-9.13,31.13,31.13,0,0,1,14.49-3.24,31.5,31.5,0,0,1,14.49,3.18,23.59,23.59,0,0,1,9.72,9,25.26,25.26,0,0,1,3.48,13.31,1.25,1.25,0,0,1-.36.94,1.11,1.11,0,0,1-.82.36l-6,.35c-.79,0-1.18-.35-1.18-1.06v-.36q0-8.35-5.3-13.37t-14-5q-8.72,0-14,5.06t-5.3,13.31v33q0,8.25,5.3,13.31t14,5.07q8.72,0,14-5t5.3-13.37v-.24c0-.7.39-1.06,1.18-1.06l6,.36c.78,0,1.18.35,1.18,1.06a25.78,25.78,0,0,1-3.48,13.48,23.47,23.47,0,0,1-9.72,9,31.5,31.5,0,0,1-14.49,3.18A31,31,0,0,1,202.73,258.42Z"/><path d="M265.28,257.18a22.31,22.31,0,0,1-8.48-12,51.3,51.3,0,0,1-1.65-14.48q0-9.08,1.65-14.38a21.68,21.68,0,0,1,8.37-11.89A24.89,24.89,0,0,1,280,200.05a24.07,24.07,0,0,1,14.43,4.36,21.88,21.88,0,0,1,8.31,11.78q1.63,5.06,1.64,14.49t-1.64,14.48a21.89,21.89,0,0,1-8.31,12,24.25,24.25,0,0,1-14.55,4.36A24.54,24.54,0,0,1,265.28,257.18Zm24.27-6.07a15.3,15.3,0,0,0,5.42-8.42,51.48,51.48,0,0,0,1.06-11.9,56.73,56.73,0,0,0-.94-11.89,15.2,15.2,0,0,0-5.48-8.43,15.68,15.68,0,0,0-9.84-3.12,15,15,0,0,0-15.19,11.55,56.73,56.73,0,0,0-.94,11.89,56.77,56.77,0,0,0,.94,11.9,14.6,14.6,0,0,0,5.36,8.42,15.79,15.79,0,0,0,9.95,3.13A15.19,15.19,0,0,0,289.55,251.11Z"/><path d="M390.92,205.47Q396,210.77,396,220v39.46a1,1,0,0,1-1.18,1.18H389a1,1,0,0,1-1.17-1.18V221.61q0-6.48-3.72-10.31a12.92,12.92,0,0,0-9.71-3.83,13.77,13.77,0,0,0-10.08,3.77q-3.82,3.76-3.82,10.13v38.05a1,1,0,0,1-1.18,1.18h-6a1,1,0,0,1-1.18-1.18V221.61q0-6.48-3.65-10.31a12.88,12.88,0,0,0-9.78-3.83q-6.24,0-9.95,3.77T325,221.37v38.05a1,1,0,0,1-1.18,1.18h-6a1,1,0,0,1-1.18-1.18V202.17a1,1,0,0,1,1.18-1.18h6a1,1,0,0,1,1.18,1.18v4.71c0,.16.06.26.18.29s.25,0,.41-.17a15.88,15.88,0,0,1,6.65-5.13,23.22,23.22,0,0,1,9-1.71,20.93,20.93,0,0,1,10.49,2.48,15.93,15.93,0,0,1,6.6,7.18c.15.4.35.4.58,0a17,17,0,0,1,7.31-7.24A23.15,23.15,0,0,1,377,200.16Q385.8,200.16,390.92,205.47Z"/><path d="M483.63,205.47q5.12,5.29,5.12,14.49v39.46a1,1,0,0,1-1.18,1.18h-5.89a1,1,0,0,1-1.18-1.18V221.61q0-6.48-3.71-10.31a12.92,12.92,0,0,0-9.72-3.83A13.74,13.74,0,0,0,457,211.24q-3.83,3.76-3.83,10.13v38.05A1,1,0,0,1,452,260.6h-6a1,1,0,0,1-1.18-1.18V221.61q0-6.48-3.65-10.31a12.91,12.91,0,0,0-9.78-3.83q-6.24,0-9.95,3.77t-3.71,10.13v38.05a1,1,0,0,1-1.18,1.18h-6a1,1,0,0,1-1.18-1.18V202.17a1,1,0,0,1,1.18-1.18h6a1,1,0,0,1,1.18,1.18v4.71c0,.16.06.26.17.29s.26,0,.42-.17a15.88,15.88,0,0,1,6.65-5.13,23.18,23.18,0,0,1,9-1.71,20.93,20.93,0,0,1,10.49,2.48,15.85,15.85,0,0,1,6.59,7.18c.16.4.36.4.59,0a16.92,16.92,0,0,1,7.31-7.24,23.15,23.15,0,0,1,10.72-2.42Q478.51,200.16,483.63,205.47Z"/><rect x="169.27" width="148.57" height="148.57" rx="57.18" style="fill:#113182"/><path d="M215,44.89a41.57,41.57,0,0,0,58.78,58.79,45.81,45.81,0,0,0,10.58-16.47l-3.59-3.58-5.17-5.17-9.9-9.91-7.54,7.54,13.42,13.42a40.14,40.14,0,0,1-5.33,6.63,30.91,30.91,0,1,1,0-43.71l.24.26L274,45.15c-.09-.08-.16-.17-.25-.26A41.62,41.62,0,0,0,215,44.89Z" style="fill:#fff"/><path d="M249,81.68A8.82,8.82,0,0,1,244.41,83a8.67,8.67,0,1,1,0-17.33,8.85,8.85,0,0,1,6.37,2.69l7.56-7.44a19.68,19.68,0,0,0-14-5.83,19.25,19.25,0,1,0,0,38.5,19.65,19.65,0,0,0,12.24-4.26Z" style="fill:#fff"/></svg>