<svg xmlns="http://www.w3.org/2000/svg" width="15" height="15" viewBox="0 0 15 15">
    <g fill="#FFF" fill-rule="evenodd">
        <path d="M7.75 3.25a.501.501 0 0 1-.5-.5c0-.275.225-.5.5-.5 2.755 0 5 2.245 5 5 0 .275-.225.5-.5.5a.501.501 0 0 1-.5-.5c0-2.205-1.795-4-4-4z"/>
        <path d="M8 4.5A2.5 2.5 0 0 1 10.5 7c0 .275-.225.5-.5.5a.501.501 0 0 1-.5-.5c0-.825-.675-1.5-1.5-1.5a.501.501 0 0 1-.5-.5c0-.275.225-.5.5-.5zM7 .5c0-.275.225-.5.5-.5C11.635 0 15 3.365 15 7.5c0 .275-.225.5-.5.5a.501.501 0 0 1-.5-.5C14 3.915 11.085 1 7.5 1A.501.501 0 0 1 7 .5z"/>
        <path d="M14.705 11.295a1.006 1.006 0 0 1 0 1.425l-1.735 1.735c-.355.355-.87.545-1.49.545-1.815 0-4.425-1.57-7.17-4.31C.02 6.395-.67 3.245.545 2.03L2.28.295c.38-.38 1.045-.38 1.425 0L5.5 2.09c.19.19.295.44.295.71a.99.99 0 0 1-.3.715L4.34 4.675c.12 1.4 1.51 2.785 2.355 3.63.845.845 2.23 2.235 3.63 2.355l1.16-1.16c.38-.38 1.045-.38 1.425.005l1.795 1.79z"/>
    </g>
</svg>
