<svg xmlns="http://www.w3.org/2000/svg" width="16" height="16" viewBox="0 0 16 16">
    <path fill="#FFF" fill-rule="evenodd" d="M12.506 10.184c-.241-.132-1.425-.77-1.646-.861-.222-.09-.384-.137-.557.102-.173.24-.664.774-.813.933-.15.158-.293.173-.534.04-.24-.131-1.021-.42-1.927-1.29-.705-.678-1.167-1.5-1.3-1.75-.135-.251-.002-.379.126-.497.114-.105.256-.277.384-.416.127-.138.173-.239.26-.4.088-.16.053-.305-.004-.43-.057-.124-.502-1.35-.688-1.849-.186-.499-.393-.424-.537-.43-.143-.005-.306-.032-.47-.038a.902.902 0 0 0-.665.282c-.234.237-.89.807-.935 2.014-.045 1.207.79 2.406.907 2.574.116.169 1.594 2.785 4.051 3.86 2.457 1.076 2.47.749 2.92.724.452-.023 1.474-.539 1.7-1.104.226-.565.244-1.056.187-1.16-.058-.105-.219-.173-.46-.304M8 16a7.955 7.955 0 0 1-4.401-1.323l-3.075.984 1-2.97A7.958 7.958 0 0 1 0 8C0 3.588 3.589 0 8 0s8 3.589 8 8-3.589 8-8 8"/>
</svg>
